millimetreA italic 01.ufo
<glyph name="A" format="1">
  <advance width="600"/>
  <unicode hex="0041"/>
  <outline>
    <contour>
      <point x="555" y="200" type="line"/>
      <point x="580" y="300" type="line"/>
      <point x="180" y="300" type="line"/>
      <point x="155" y="200" type="line"/>
    </contour>
    <contour>
      <point x="519" y="700" type="curve"/>
      <point x="434" y="647" type="line"/>
      <point x="547" y="564"/>
      <point x="542" y="398"/>
      <point x="496" y="200" type="curve" smooth="yes"/>
      <point x="450" y="0" type="line"/>
      <point x="550" y="0" type="line"/>
      <point x="596" y="200" type="line" smooth="yes"/>
      <point x="639" y="385"/>
      <point x="650" y="603"/>
    </contour>
    <contour>
      <point x="419" y="700" type="line"/>
      <point x="212" y="588"/>
      <point x="144" y="409"/>
      <point x="96" y="200" type="curve" smooth="yes"/>
      <point x="50" y="0" type="line"/>
      <point x="150" y="0" type="line"/>
      <point x="196" y="200" type="line" smooth="yes"/>
      <point x="240" y="390"/>
      <point x="306" y="531"/>
      <point x="506" y="647" type="curve"/>
      <point x="519" y="700" type="line"/>
    </contour>
    <contour>
      <point x="300.0" y="650.0" type="move" name="top"/>
    </contour>
  </outline>
</glyph>
<glyph name="B" format="1">
  <advance width="600"/>
  <unicode hex="0042"/>
  <outline>
    <contour>
      <point x="553" y="452" type="curve" smooth="yes"/>
      <point x="550" y="440" type="line" smooth="yes"/>
      <point x="520" y="319"/>
      <point x="475" y="300"/>
      <point x="366" y="300" type="curve"/>
      <point x="181" y="300" type="line"/>
      <point x="156" y="200" type="line"/>
      <point x="381" y="200" type="line" smooth="yes"/>
      <point x="521" y="200"/>
      <point x="611" y="268"/>
      <point x="646" y="420" type="curve" smooth="yes"/>
      <point x="658" y="472" type="line" smooth="yes"/>
      <point x="694" y="630"/>
      <point x="620" y="700"/>
      <point x="468" y="700" type="curve" smooth="yes"/>
      <point x="284" y="700" type="line"/>
      <point x="259" y="600" type="line"/>
      <point x="423" y="600" type="line" smooth="yes"/>
      <point x="547" y="600"/>
      <point x="585" y="579"/>
    </contour>
    <contour>
      <point x="50" y="0" type="line"/>
      <point x="150" y="0" type="line"/>
      <point x="310" y="700" type="line"/>
      <point x="210" y="700" type="line"/>
    </contour>
    <contour>
      <point x="465" y="150" type="curve" smooth="yes"/>
      <point x="465" y="110"/>
      <point x="445" y="100"/>
      <point x="415" y="100" type="curve"/>
      <point x="120" y="100" type="line"/>
      <point x="120" y="0" type="line"/>
      <point x="415" y="0" type="line"/>
      <point x="495" y="0"/>
      <point x="565" y="60"/>
      <point x="565" y="150" type="curve"/>
      <point x="565" y="240"/>
      <point x="495" y="300"/>
      <point x="415" y="300" type="curve"/>
      <point x="149" y="300" type="line"/>
      <point x="140" y="200" type="line"/>
      <point x="415" y="200" type="line"/>
      <point x="445" y="200"/>
      <point x="465" y="190"/>
    </contour>
  </outline>
</glyph>
<glyph name="C" format="1">
  <advance width="600"/>
  <unicode hex="0043"/>
  <outline>
    <contour>
      <point x="444" y="616" type="curve"/>
      <point x="579" y="616"/>
      <point x="588" y="578"/>
      <point x="569" y="496" type="curve" smooth="yes"/>
      <point x="559" y="452" type="line"/>
      <point x="659" y="452" type="line"/>
      <point x="669" y="496" type="line" smooth="yes"/>
      <point x="699" y="628"/>
      <point x="654" y="716"/>
      <point x="469" y="716" type="curve"/>
      <point x="264" y="716"/>
      <point x="190" y="636"/>
      <point x="158" y="496" type="curve" smooth="yes"/>
      <point x="102" y="250" type="line"/>
      <point x="202" y="250" type="line"/>
      <point x="259" y="496" type="line" smooth="yes"/>
      <point x="279" y="576"/>
      <point x="309" y="616"/>
    </contour>
    <contour>
      <point x="317" y="90" type="curve"/>
      <point x="182" y="90"/>
      <point x="172" y="130"/>
      <point x="192" y="210" type="curve" smooth="yes"/>
      <point x="202" y="250" type="line"/>
      <point x="102" y="250" type="line"/>
      <point x="92" y="210" type="line" smooth="yes"/>
      <point x="60" y="80"/>
      <point x="107" y="-10"/>
      <point x="292" y="-10" type="curve"/>
      <point x="497" y="-10"/>
      <point x="572" y="70"/>
      <point x="603" y="210" type="curve" smooth="yes"/>
      <point x="612" y="250" type="line"/>
      <point x="512" y="250" type="line"/>
      <point x="502" y="210" type="line" smooth="yes"/>
      <point x="482" y="130"/>
      <point x="452" y="90"/>
    </contour>
  </outline>
</glyph>
<glyph name="D" format="1">
  <advance width="600"/>
  <unicode hex="0044"/>
  <outline>
    <contour>
      <point x="549" y="433" type="curve" smooth="yes"/>
      <point x="505" y="240" type="line" smooth="yes"/>
      <point x="477" y="119"/>
      <point x="430" y="100"/>
      <point x="320" y="100" type="curve"/>
      <point x="135" y="100" type="line"/>
      <point x="110" y="0" type="line"/>
      <point x="335" y="0" type="line" smooth="yes"/>
      <point x="475" y="0"/>
      <point x="565" y="69"/>
      <point x="600" y="220" type="curve" smooth="yes"/>
      <point x="654" y="453" type="line" smooth="yes"/>
      <point x="693" y="622"/>
      <point x="617" y="700"/>
      <point x="468" y="700" type="curve" smooth="yes"/>
      <point x="284" y="700" type="line"/>
      <point x="259" y="600" type="line"/>
      <point x="423" y="600" type="line" smooth="yes"/>
      <point x="543" y="600"/>
      <point x="582" y="577"/>
    </contour>
    <contour>
      <point x="50" y="0" type="line"/>
      <point x="150" y="0" type="line"/>
      <point x="310" y="700" type="line"/>
      <point x="210" y="700" type="line"/>
    </contour>
    <contour>
      <point x="250.0" y="650.0" type="move" name="top"/>
    </contour>
  </outline>
</glyph>
<glyph name="E" format="1">
  <advance width="600"/>
  <unicode hex="0045"/>
  <outline>
    <contour>
      <point x="100" y="100" type="line"/>
      <point x="100" y="0" type="line"/>
      <point x="552" y="0" type="line"/>
      <point x="552" y="100" type="line"/>
    </contour>
    <contour>
      <point x="50" y="0" type="line"/>
      <point x="150" y="0" type="line"/>
      <point x="310" y="700" type="line"/>
      <point x="210" y="700" type="line"/>
    </contour>
    <contour>
      <point x="250" y="600" type="line"/>
      <point x="700" y="600" type="line"/>
      <point x="700" y="700" type="line"/>
      <point x="250" y="700" type="line"/>
    </contour>
    <contour>
      <point x="200" y="400" type="line"/>
      <point x="600" y="400" type="line"/>
      <point x="600" y="500" type="line"/>
      <point x="200" y="500" type="line"/>
    </contour>
    <contour>
      <point x="315.0" y="650.0" type="move" name="top"/>
    </contour>
  </outline>
</glyph>
<glyph name="F" format="1">
  <advance width="600"/>
  <unicode hex="0046"/>
  <outline>
    <contour>
      <point x="50" y="0" type="line"/>
      <point x="150" y="0" type="line"/>
      <point x="310" y="700" type="line"/>
      <point x="210" y="700" type="line"/>
    </contour>
    <contour>
      <point x="250" y="600" type="line"/>
      <point x="700" y="600" type="line"/>
      <point x="700" y="700" type="line"/>
      <point x="250" y="700" type="line"/>
    </contour>
    <contour>
      <point x="172" y="200" type="line"/>
      <point x="600" y="200" type="line"/>
      <point x="600" y="300" type="line"/>
      <point x="172" y="300" type="line"/>
    </contour>
  </outline>
</glyph>
<glyph name="G" format="1">
  <advance width="600"/>
  <unicode hex="0047"/>
  <outline>
    <contour>
      <point x="444" y="616" type="curve"/>
      <point x="579" y="616"/>
      <point x="588" y="578"/>
      <point x="569" y="496" type="curve" smooth="yes"/>
      <point x="559" y="452" type="line"/>
      <point x="659" y="452" type="line"/>
      <point x="669" y="496" type="line" smooth="yes"/>
      <point x="699" y="628"/>
      <point x="654" y="716"/>
      <point x="469" y="716" type="curve"/>
      <point x="264" y="716"/>
      <point x="190" y="636"/>
      <point x="158" y="496" type="curve" smooth="yes"/>
      <point x="102" y="250" type="line"/>
      <point x="202" y="250" type="line"/>
      <point x="259" y="496" type="line" smooth="yes"/>
      <point x="279" y="576"/>
      <point x="309" y="616"/>
    </contour>
    <contour>
      <point x="317" y="90" type="curve"/>
      <point x="182" y="90"/>
      <point x="172" y="130"/>
      <point x="192" y="210" type="curve" smooth="yes"/>
      <point x="202" y="250" type="line"/>
      <point x="102" y="250" type="line"/>
      <point x="92" y="210" type="line" smooth="yes"/>
      <point x="60" y="80"/>
      <point x="107" y="-10"/>
      <point x="292" y="-10" type="curve"/>
      <point x="381.268292683" y="-10.0"/>
      <point x="442" y="14"/>
      <point x="472" y="80" type="curve"/>
      <point x="512" y="250" type="line"/>
      <point x="502" y="210" type="line" smooth="yes"/>
      <point x="481.992623666" y="129.970494662"/>
      <point x="430" y="90"/>
    </contour>
    <contour>
      <point x="625" y="300" type="line"/>
      <point x="525" y="300" type="line"/>
      <point x="471" y="80" type="line"/>
      <point x="466" y="0" type="line"/>
      <point x="556" y="0" type="line"/>
    </contour>
    <contour>
      <point x="350" y="200" type="line"/>
      <point x="650" y="200" type="line"/>
      <point x="650" y="300" type="line"/>
      <point x="350" y="300" type="line"/>
    </contour>
  </outline>
</glyph>
<glyph name="H" format="1">
  <advance width="600"/>
  <unicode hex="0048"/>
  <outline>
    <contour>
      <point x="200" y="400" type="line"/>
      <point x="600" y="400" type="line"/>
      <point x="600" y="500" type="line"/>
      <point x="200" y="500" type="line"/>
    </contour>
    <contour>
      <point x="50" y="0" type="line"/>
      <point x="150" y="0" type="line"/>
      <point x="310" y="700" type="line"/>
      <point x="210" y="700" type="line"/>
    </contour>
    <contour>
      <point x="450" y="0" type="line"/>
      <point x="550" y="0" type="line"/>
      <point x="710" y="700" type="line"/>
      <point x="610" y="700" type="line"/>
    </contour>
    <contour>
      <point x="250" y="650" type="move" name="top"/>
    </contour>
    <contour>
      <point x="650" y="650" type="move" name="top"/>
    </contour>
  </outline>
</glyph>
<glyph name="J" format="1">
  <advance width="400"/>
  <unicode hex="004A"/>
  <outline>
    <contour>
      <point x="84" y="151" type="line" smooth="yes"/>
      <point x="61" y="55"/>
      <point x="114" y="-10"/>
      <point x="204" y="-10" type="curve" smooth="yes"/>
      <point x="304" y="-10"/>
      <point x="361" y="49"/>
      <point x="382" y="140" type="curve" smooth="yes"/>
      <point x="510" y="700" type="line"/>
      <point x="410" y="700" type="line"/>
      <point x="282" y="140" type="line" smooth="yes"/>
      <point x="273" y="100"/>
      <point x="249" y="90"/>
      <point x="219" y="90" type="curve" smooth="yes"/>
      <point x="189" y="90"/>
      <point x="169" y="90"/>
      <point x="179" y="130" type="curve" smooth="yes"/>
      <point x="208" y="250" type="line"/>
      <point x="108" y="250" type="line"/>
    </contour>
  </outline>
</glyph>
<glyph name="K" format="1">
  <advance width="600"/>
  <unicode hex="004B"/>
  <outline>
    <contour>
      <point x="206" y="300" type="line"/>
      <point x="181" y="200" type="line"/>
      <point x="301" y="200" type="line"/>
      <point x="326" y="300" type="line"/>
    </contour>
    <contour>
      <point x="373" y="215" type="line"/>
      <point x="505.148760331" y="215.0"/>
      <point x="579.227212287" y="268.880919628"/>
      <point x="619" y="400" type="curve" smooth="yes"/>
      <point x="710" y="700" type="line"/>
      <point x="610" y="700" type="line"/>
      <point x="518" y="400" type="line" smooth="yes"/>
      <point x="489.917746498" y="308.427434234"/>
      <point x="472.935483871" y="300.0"/>
      <point x="391" y="300" type="curve"/>
      <point x="276" y="300" type="line"/>
      <point x="251" y="200" type="line"/>
    </contour>
    <contour>
      <point x="398" y="255" type="curve"/>
      <point x="301" y="300" type="line"/>
      <point x="266" y="200" type="line"/>
      <point x="381" y="200" type="line"/>
      <point x="462.352112676" y="200.0"/>
      <point x="462.415850263" y="190.264171052"/>
      <point x="457" y="100" type="curve" smooth="yes"/>
      <point x="451" y="0" type="line"/>
      <point x="551" y="0" type="line"/>
      <point x="557" y="100" type="line" smooth="yes"/>
      <point x="563.622650839" y="210.377513981"/>
      <point x="529.123376623" y="255.0"/>
    </contour>
    <contour>
      <point x="50" y="0" type="line"/>
      <point x="150" y="0" type="line"/>
      <point x="310" y="700" type="line"/>
      <point x="210" y="700" type="line"/>
    </contour>
    <contour>
      <point x="250.0" y="650.0" type="move" name="top"/>
    </contour>
  </outline>
</glyph>
<glyph name="M" format="1">
  <advance width="600"/>
  <unicode hex="004D"/>
  <outline>
    <contour>
      <point x="362" y="50" type="line" smooth="yes"/>
      <point x="384" y="140"/>
      <point x="414" y="198"/>
      <point x="475" y="300" type="curve" smooth="yes"/>
      <point x="573" y="464" type="line"/>
      <point x="518" y="301" type="line"/>
      <point x="450" y="0" type="line"/>
      <point x="550" y="0" type="line"/>
      <point x="710" y="700" type="line"/>
      <point x="610" y="700" type="line"/>
      <point x="437" y="420" type="line" smooth="yes"/>
      <point x="339" y="262"/>
      <point x="284" y="140"/>
      <point x="262" y="50" type="curve" smooth="yes"/>
      <point x="250" y="0" type="line"/>
      <point x="350" y="0" type="line"/>
    </contour>
    <contour>
      <point x="274" y="300" type="line" smooth="yes"/>
      <point x="287" y="199"/>
      <point x="284" y="142"/>
      <point x="262" y="50" type="curve" smooth="yes"/>
      <point x="250" y="0" type="line"/>
      <point x="350" y="0" type="line"/>
      <point x="356" y="50" type="line" smooth="yes"/>
      <point x="368" y="152"/>
      <point x="378" y="297"/>
      <point x="357" y="420" type="curve" smooth="yes"/>
      <point x="310" y="700" type="line"/>
      <point x="210" y="700" type="line"/>
      <point x="50" y="0" type="line"/>
      <point x="150" y="0" type="line"/>
      <point x="226" y="335" type="line"/>
      <point x="252" y="465" type="line"/>
    </contour>
  </outline>
</glyph>
<glyph name="O" format="1">
  <advance width="600"/>
  <unicode hex="004F"/>
  <outline>
    <contour>
      <point x="444" y="616" type="curve"/>
      <point x="574" y="616"/>
      <point x="583" y="576"/>
      <point x="564" y="496" type="curve" smooth="yes"/>
      <point x="507" y="250" type="line"/>
      <point x="607" y="250" type="line"/>
      <point x="664" y="496" type="line" smooth="yes"/>
      <point x="694" y="626"/>
      <point x="649" y="716"/>
      <point x="469" y="716" type="curve"/>
      <point x="267" y="716"/>
      <point x="195" y="636"/>
      <point x="163" y="496" type="curve" smooth="yes"/>
      <point x="107" y="250" type="line"/>
      <point x="207" y="250" type="line"/>
      <point x="264" y="496" type="line" smooth="yes"/>
      <point x="283" y="576"/>
      <point x="313" y="616"/>
    </contour>
    <contour>
      <point x="317" y="90" type="curve"/>
      <point x="187" y="90"/>
      <point x="177" y="130"/>
      <point x="197" y="210" type="curve" smooth="yes"/>
      <point x="207" y="250" type="line"/>
      <point x="107" y="250" type="line"/>
      <point x="97" y="210" type="line" smooth="yes"/>
      <point x="65" y="80"/>
      <point x="112" y="-10"/>
      <point x="292" y="-10" type="curve"/>
      <point x="494" y="-10"/>
      <point x="567" y="70"/>
      <point x="598" y="210" type="curve" smooth="yes"/>
      <point x="607" y="250" type="line"/>
      <point x="507" y="250" type="line"/>
      <point x="497" y="210" type="line" smooth="yes"/>
      <point x="477" y="130"/>
      <point x="448" y="90"/>
    </contour>
    <contour>
      <point x="300.0" y="650.0" type="move" name="top"/>
    </contour>
    <contour>
      <point x="300.0" y="500.0" type="move" name="top"/>
    </contour>
    <contour>
      <point x="419.0" y="500.0" type="move" name="top"/>
    </contour>
  </outline>
</glyph>
<glyph name="P" format="1">
  <advance width="600"/>
  <unicode hex="0050"/>
  <outline>
    <contour>
      <point x="553" y="452" type="curve" smooth="yes"/>
      <point x="550" y="440" type="line" smooth="yes"/>
      <point x="519.774089254" y="319.096357018"/>
      <point x="475.405405405" y="300.0"/>
      <point x="366" y="300" type="curve"/>
      <point x="181" y="300" type="line"/>
      <point x="156" y="200" type="line"/>
      <point x="381" y="200" type="line" smooth="yes"/>
      <point x="521" y="200"/>
      <point x="611" y="268"/>
      <point x="646" y="420" type="curve" smooth="yes"/>
      <point x="658" y="472" type="line" smooth="yes"/>
      <point x="694" y="630"/>
      <point x="620.204301075" y="700"/>
      <point x="468" y="700" type="curve" smooth="yes"/>
      <point x="284" y="700" type="line"/>
      <point x="259" y="600" type="line"/>
      <point x="423" y="600" type="line" smooth="yes"/>
      <point x="546.80952381" y="600"/>
      <point x="584.750336805" y="579.001347218"/>
    </contour>
    <contour>
      <point x="50" y="0" type="line"/>
      <point x="150" y="0" type="line"/>
      <point x="310" y="700" type="line"/>
      <point x="210" y="700" type="line"/>
    </contour>
  </outline>
</glyph>
<glyph name="Q" format="1">
  <advance width="600"/>
  <unicode hex="0051"/>
  <outline>
    <contour>
      <point x="444" y="616" type="curve"/>
      <point x="574" y="616"/>
      <point x="583" y="576"/>
      <point x="564" y="496" type="curve" smooth="yes"/>
      <point x="507" y="250" type="line"/>
      <point x="607" y="250" type="line"/>
      <point x="664" y="496" type="line" smooth="yes"/>
      <point x="694" y="626"/>
      <point x="649" y="716"/>
      <point x="469" y="716" type="curve"/>
      <point x="267" y="716"/>
      <point x="195" y="636"/>
      <point x="163" y="496" type="curve" smooth="yes"/>
      <point x="107" y="250" type="line"/>
      <point x="207" y="250" type="line"/>
      <point x="264" y="496" type="line" smooth="yes"/>
      <point x="283" y="576"/>
      <point x="313" y="616"/>
    </contour>
    <contour>
      <point x="317" y="90" type="curve"/>
      <point x="187" y="90"/>
      <point x="177" y="130"/>
      <point x="197" y="210" type="curve" smooth="yes"/>
      <point x="207" y="250" type="line"/>
      <point x="107" y="250" type="line"/>
      <point x="97" y="210" type="line" smooth="yes"/>
      <point x="65" y="80"/>
      <point x="112" y="-10"/>
      <point x="292" y="-10" type="curve"/>
      <point x="494" y="-10"/>
      <point x="567" y="70"/>
      <point x="598" y="210" type="curve" smooth="yes"/>
      <point x="607" y="250" type="line"/>
      <point x="507" y="250" type="line"/>
      <point x="497" y="210" type="line" smooth="yes"/>
      <point x="477" y="130"/>
      <point x="448" y="90"/>
    </contour>
    <contour>
      <point x="234" y="-50" type="line"/>
      <point x="334" y="-50" type="line"/>
      <point x="392" y="200" type="line"/>
      <point x="292" y="200" type="line"/>
    </contour>
    <contour>
      <point x="300" y="650" type="move" name="top"/>
    </contour>
    <contour>
      <point x="300" y="500" type="move" name="top"/>
    </contour>
    <contour>
      <point x="419" y="500" type="move" name="top"/>
    </contour>
    <contour>
      <point x="439" y="600" type="move" name="top"/>
    </contour>
  </outline>
</glyph>
<glyph name="R" format="1">
  <advance width="600"/>
  <unicode hex="0052"/>
  <outline>
    <contour>
      <point x="391" y="270" type="curve"/>
      <point x="369" y="300" type="line"/>
      <point x="344" y="200" type="line"/>
      <point x="373" y="200" type="line"/>
      <point x="453" y="200"/>
      <point x="453" y="190"/>
      <point x="454" y="100" type="curve" smooth="yes"/>
      <point x="455" y="0" type="line"/>
      <point x="555" y="0" type="line"/>
      <point x="554" y="100" type="line" smooth="yes"/>
      <point x="553" y="220"/>
      <point x="521" y="270"/>
    </contour>
    <contour>
      <point x="553" y="452" type="curve" smooth="yes"/>
      <point x="550" y="440" type="line" smooth="yes"/>
      <point x="520" y="319"/>
      <point x="475" y="300"/>
      <point x="366" y="300" type="curve"/>
      <point x="181" y="300" type="line"/>
      <point x="156" y="200" type="line"/>
      <point x="345" y="200" type="line"/>
      <point x="381" y="210" type="line"/>
      <point x="521.0" y="210.0"/>
      <point x="612.439108911" y="274.569471946"/>
      <point x="646" y="420" type="curve" smooth="yes"/>
      <point x="658" y="472" type="line" smooth="yes"/>
      <point x="694" y="630"/>
      <point x="620" y="700"/>
      <point x="468" y="700" type="curve" smooth="yes"/>
      <point x="284" y="700" type="line"/>
      <point x="259" y="600" type="line"/>
      <point x="423" y="600" type="line" smooth="yes"/>
      <point x="547" y="600"/>
      <point x="585" y="579"/>
    </contour>
    <contour>
      <point x="50" y="0" type="line"/>
      <point x="150" y="0" type="line"/>
      <point x="310" y="700" type="line"/>
      <point x="210" y="700" type="line"/>
    </contour>
  </outline>
</glyph>
<glyph name="S" format="1">
  <advance width="600"/>
  <unicode hex="0053"/>
  <outline>
    <contour>
      <point x="323" y="100" type="curve"/>
      <point x="210.130434783" y="100.0"/>
      <point x="169.542053066" y="121.806843554"/>
      <point x="205" y="240" type="curve" smooth="yes"/>
      <point x="208" y="250" type="line"/>
      <point x="108" y="250" type="line"/>
      <point x="101" y="220" type="line"/>
      <point x="62.6820687898" y="68.7450083808"/>
      <point x="128.994011976" y="0"/>
      <point x="288" y="0" type="curve" smooth="yes"/>
      <point x="318" y="0" type="line"/>
      <point x="485.878787879" y="0.0"/>
      <point x="565" y="70"/>
      <point x="590" y="170" type="curve" smooth="yes"/>
      <point x="660" y="450"/>
      <point x="225.944822644" y="339.774274455"/>
      <point x="270" y="520" type="curve" smooth="yes"/>
      <point x="283.035835088" y="570.137827261"/>
      <point x="320.294117647" y="600.0"/>
      <point x="441" y="600" type="curve"/>
      <point x="551.956521739" y="600.0"/>
      <point x="589.368204472" y="579.683416398"/>
      <point x="557" y="461" type="curve" smooth="yes"/>
      <point x="554" y="450" type="line"/>
      <point x="654" y="450" type="line"/>
      <point x="661" y="480" type="line"/>
      <point x="699.156191382" y="630.61654493"/>
      <point x="634.484848485" y="700"/>
      <point x="486" y="700" type="curve" smooth="yes"/>
      <point x="456" y="700" type="line"/>
      <point x="281.073825503" y="700.0"/>
      <point x="198" y="630"/>
      <point x="173" y="531" type="curve" smooth="yes"/>
      <point x="103" y="250"/>
      <point x="537.055177356" y="360.225725545"/>
      <point x="493" y="180" type="curve" smooth="yes"/>
      <point x="480" y="130"/>
      <point x="443" y="100"/>
    </contour>
  </outline>
</glyph>
<glyph name="T" format="1">
  <advance width="600"/>
  <unicode hex="0054"/>
  <outline>
    <contour>
      <point x="165" y="600" type="line"/>
      <point x="715" y="600" type="line"/>
      <point x="715" y="700" type="line"/>
      <point x="165" y="700" type="line"/>
    </contour>
    <contour>
      <point x="250" y="0" type="line"/>
      <point x="350" y="0" type="line"/>
      <point x="510" y="700" type="line"/>
      <point x="410" y="700" type="line"/>
    </contour>
    <contour>
      <point x="450" y="650" type="move" name="top"/>
    </contour>
  </outline>
</glyph>
<glyph name="U" format="1">
  <advance width="600"/>
  <unicode hex="0055"/>
  <outline>
    <contour>
      <point x="317" y="90" type="curve"/>
      <point x="187.4" y="90.0"/>
      <point x="179" y="131"/>
      <point x="197" y="210" type="curve" smooth="yes"/>
      <point x="311" y="700" type="line"/>
      <point x="211" y="700" type="line"/>
      <point x="97" y="210" type="line" smooth="yes"/>
      <point x="67" y="81"/>
      <point x="111.625" y="-10.0"/>
      <point x="292" y="-10" type="curve"/>
      <point x="493.704180064" y="-10.0"/>
      <point x="565" y="69"/>
      <point x="598" y="210" type="curve" smooth="yes"/>
      <point x="711" y="700" type="line"/>
      <point x="611" y="700" type="line"/>
      <point x="497" y="210" type="line" smooth="yes"/>
      <point x="479" y="131"/>
      <point x="448.351351351" y="90.0"/>
    </contour>
    <contour>
      <point x="300.0" y="650.0" type="move" name="top"/>
    </contour>
    <contour>
      <point x="300.0" y="650.0" type="move" name="top"/>
    </contour>
    <contour>
      <point x="300.0" y="500.0" type="move" name="top"/>
    </contour>
    <contour>
      <point x="419.0" y="500.0" type="move" name="top"/>
    </contour>
  </outline>
</glyph>
<glyph name="V" format="1">
  <advance width="600"/>
  <unicode hex="0056"/>
  <outline>
    <contour>
      <point x="241" y="0" type="curve"/>
      <point x="326" y="53" type="line"/>
      <point x="213.277877757" y="135.855577033"/>
      <point x="218.450046398" y="301.956723472"/>
      <point x="264" y="500" type="curve" smooth="yes"/>
      <point x="310" y="700" type="line"/>
      <point x="210" y="700" type="line"/>
      <point x="164" y="500" type="line" smooth="yes"/>
      <point x="121.44986778" y="314.99942513"/>
      <point x="110.466855694" y="96.6912180044"/>
    </contour>
    <contour>
      <point x="341" y="0" type="line"/>
      <point x="548" y="112"/>
      <point x="615.990313653" y="291.262233275"/>
      <point x="664" y="500" type="curve" smooth="yes"/>
      <point x="710" y="700" type="line"/>
      <point x="610" y="700" type="line"/>
      <point x="564" y="500" type="line" smooth="yes"/>
      <point x="520.341732186" y="310.181444287"/>
      <point x="454.371563771" y="169.124429004"/>
      <point x="254" y="53" type="curve"/>
      <point x="241" y="0" type="line"/>
    </contour>
  </outline>
</glyph>
<glyph name="W" format="1">
  <advance width="600"/>
  <unicode hex="0057"/>
  <outline>
    <contour>
      <point x="149" y="0" type="curve"/>
      <point x="241" y="30" type="line"/>
      <point x="206" y="131"/>
      <point x="202" y="228"/>
      <point x="230" y="350" type="curve" smooth="yes"/>
      <point x="310" y="700" type="line"/>
      <point x="210" y="700" type="line"/>
      <point x="130" y="350" type="line" smooth="yes"/>
      <point x="104" y="236"/>
      <point x="113" y="105"/>
    </contour>
    <contour>
      <point x="449" y="0" type="line"/>
      <point x="533" y="99"/>
      <point x="605" y="239"/>
      <point x="630" y="350" type="curve" smooth="yes"/>
      <point x="710" y="700" type="line"/>
      <point x="610" y="700" type="line"/>
      <point x="530" y="350" type="line" smooth="yes"/>
      <point x="502" y="228"/>
      <point x="446" y="130"/>
      <point x="361" y="30" type="curve"/>
      <point x="349" y="0" type="line"/>
    </contour>
    <contour>
      <point x="349" y="0" type="curve"/>
      <point x="441" y="30" type="line"/>
      <point x="406" y="130"/>
      <point x="394" y="199"/>
      <point x="417" y="300" type="curve" smooth="yes"/>
      <point x="510" y="700" type="line"/>
      <point x="410" y="700" type="line"/>
      <point x="317" y="300" type="line" smooth="yes"/>
      <point x="294" y="199"/>
      <point x="246" y="130"/>
      <point x="161" y="30" type="curve"/>
      <point x="149" y="0" type="line"/>
      <point x="249" y="0" type="line"/>
      <point x="279" y="40"/>
      <point x="322" y="115"/>
      <point x="342" y="175" type="curve"/>
      <point x="332" y="115"/>
      <point x="339" y="40"/>
    </contour>
  </outline>
</glyph>
<glyph name="X" format="1">
  <advance width="600"/>
  <unicode hex="0058"/>
  <outline>
    <contour>
      <point x="354.0" y="330.0" type="curve"/>
      <point x="456.0" y="370.0" type="line"/>
      <point x="307.126279173" y="430.948301815"/>
      <point x="265.667130075" y="511.596217719"/>
      <point x="286.0" y="600.0" type="curve" smooth="yes"/>
      <point x="309.0" y="700.0" type="line"/>
      <point x="209.0" y="700.0" type="line"/>
      <point x="186.0" y="600.0" type="line" smooth="yes"/>
      <point x="167.297761208" y="518.685918298"/>
      <point x="197.331463274" y="379.627921572"/>
    </contour>
    <contour>
      <point x="399.0" y="320.0" type="line"/>
      <point x="583.740378768" y="370.383739664"/>
      <point x="661.273904781" y="492.495238177"/>
      <point x="686.0" y="600.0" type="curve" smooth="yes"/>
      <point x="709.0" y="700.0" type="line"/>
      <point x="609.0" y="700.0" type="line"/>
      <point x="586.0" y="600.0" type="line" smooth="yes"/>
      <point x="565.608251075" y="511.340222064"/>
      <point x="499.384518715" y="432.905154676"/>
      <point x="316.0" y="370.0" type="curve"/>
      <point x="389.0" y="340.0" type="line"/>
    </contour>
    <contour>
      <point x="366.0" y="390.0" type="line"/>
      <point x="179.374674815" y="338.62561273"/>
      <point x="99.6103991002" y="206.441596401"/>
      <point x="73.0" y="100.0" type="curve" smooth="yes"/>
      <point x="48.0" y="0.0" type="line"/>
      <point x="148.0" y="0.0" type="line"/>
      <point x="173.0" y="100.0" type="line" smooth="yes"/>
      <point x="194.867811851" y="187.471247405"/>
      <point x="263.892144801" y="276.169705104"/>
      <point x="449.0" y="340.0" type="curve"/>
    </contour>
    <contour>
      <point x="411.0" y="380.0" type="curve"/>
      <point x="309.0" y="340.0" type="line"/>
      <point x="454.522208359" y="279.199625275"/>
      <point x="494.794519966" y="187.178079863"/>
      <point x="473.0" y="100.0" type="curve" smooth="yes"/>
      <point x="448.0" y="0.0" type="line"/>
      <point x="548.0" y="0.0" type="line"/>
      <point x="573.0" y="100.0" type="line" smooth="yes"/>
      <point x="593.117277589" y="180.469110355"/>
      <point x="565.369328055" y="330.485309869"/>
    </contour>
  </outline>
</glyph>
<glyph name="Y" format="1">
  <advance width="600"/>
  <unicode hex="0059"/>
  <outline>
    <contour>
      <point x="249" y="0" type="line"/>
      <point x="349" y="0" type="line"/>
      <point x="422" y="316" type="line"/>
      <point x="322" y="316" type="line"/>
    </contour>
    <contour>
      <point x="318" y="252" type="curve"/>
      <point x="403" y="305" type="line"/>
      <point x="277" y="398"/>
      <point x="267" y="494"/>
      <point x="307" y="652" type="curve" smooth="yes"/>
      <point x="320" y="700" type="line"/>
      <point x="220" y="700" type="line"/>
      <point x="207" y="652" type="line" smooth="yes"/>
      <point x="169" y="501"/>
      <point x="174" y="358"/>
    </contour>
    <contour>
      <point x="408" y="252" type="line"/>
      <point x="593" y="344"/>
      <point x="665" y="484"/>
      <point x="707" y="652" type="curve" smooth="yes"/>
      <point x="720" y="700" type="line"/>
      <point x="620" y="700" type="line"/>
      <point x="607" y="652" type="line" smooth="yes"/>
      <point x="570" y="503"/>
      <point x="502" y="404"/>
      <point x="331" y="305" type="curve"/>
      <point x="318" y="252" type="line"/>
    </contour>
    <contour>
      <point x="300" y="650" type="move" name="top"/>
    </contour>
    <contour>
      <point x="355" y="700" type="move" name="top"/>
    </contour>
    <contour>
      <point x="449" y="650" type="move" name="top"/>
    </contour>
  </outline>
</glyph>
<glyph name="Z" format="1">
  <advance width="600"/>
  <unicode hex="005A"/>
  <outline>
    <contour>
      <point x="198" y="600" type="line"/>
      <point x="647" y="600" type="line"/>
      <point x="695" y="630" type="line"/>
      <point x="712" y="700" type="line"/>
      <point x="198" y="700" type="line"/>
    </contour>
    <contour>
      <point x="50" y="0" type="line"/>
      <point x="562" y="0" type="line"/>
      <point x="562" y="100" type="line"/>
      <point x="115" y="100" type="line"/>
      <point x="67" y="70" type="line"/>
    </contour>
    <contour>
      <point x="130" y="0" type="line"/>
      <point x="695" y="630" type="line"/>
      <point x="607" y="680" type="line"/>
      <point x="67" y="70" type="line"/>
    </contour>
    <contour>
      <point x="374.798400853" y="650.0" type="move" name="top"/>
    </contour>
  </outline>
</glyph>
<glyph name="a" format="1">
  <advance width="600"/>
  <unicode hex="0061"/>
  <outline>
    <contour>
      <point x="550" y="0" type="line"/>
      <point x="665" y="500" type="line"/>
      <point x="571" y="500" type="line"/>
      <point x="540" y="420" type="line"/>
      <point x="520" y="275" type="line"/>
      <point x="515" y="240" type="line"/>
      <point x="470" y="80" type="line"/>
      <point x="462" y="0" type="line"/>
    </contour>
    <contour>
      <point x="525" y="290" type="line"/>
      <point x="540" y="420" type="line"/>
      <point x="540" y="470"/>
      <point x="500" y="510"/>
      <point x="380" y="510" type="curve" smooth="yes"/>
      <point x="222" y="510"/>
      <point x="150" y="440"/>
      <point x="115" y="290" type="curve" smooth="yes"/>
      <point x="95" y="210" type="line" smooth="yes"/>
      <point x="61" y="75"/>
      <point x="128" y="-10"/>
      <point x="270" y="-10" type="curve" smooth="yes"/>
      <point x="390" y="-10"/>
      <point x="450" y="30"/>
      <point x="470" y="80" type="curve"/>
      <point x="520" y="145" type="line"/>
    </contour>
    <contour>
      <point x="505" y="240" type="line" smooth="yes"/>
      <point x="485" y="140"/>
      <point x="450" y="90"/>
      <point x="320" y="90" type="curve" smooth="yes"/>
      <point x="210" y="90"/>
      <point x="170" y="120"/>
      <point x="200" y="240" type="curve" smooth="yes"/>
      <point x="205" y="260" type="line" smooth="yes"/>
      <point x="235" y="380"/>
      <point x="280" y="410"/>
      <point x="390" y="410" type="curve" smooth="yes"/>
      <point x="505" y="410"/>
      <point x="530" y="370"/>
      <point x="515" y="290" type="curve" smooth="yes"/>
    </contour>
    <contour>
      <point x="650.0" y="650.0" type="move" name="top"/>
    </contour>
  </outline>
</glyph>
<glyph name="b" format="1">
  <advance width="600"/>
  <unicode hex="0062"/>
  <outline>
    <contour>
      <point x="51" y="0" type="line"/>
      <point x="141" y="0" type="line"/>
      <point x="171" y="80" type="line"/>
      <point x="309" y="700" type="line"/>
      <point x="209" y="700" type="line"/>
    </contour>
    <contour>
      <point x="511" y="240" type="line" smooth="yes"/>
      <point x="481" y="120"/>
      <point x="433" y="90"/>
      <point x="323" y="90" type="curve" smooth="yes"/>
      <point x="187.196428571" y="90.0"/>
      <point x="182.989997423" y="139.956510535"/>
      <point x="206" y="240" type="curve"/>
      <point x="171" y="80" type="line"/>
      <point x="179" y="28"/>
      <point x="213" y="-10"/>
      <point x="328" y="-10" type="curve" smooth="yes"/>
      <point x="478" y="-10"/>
      <point x="563" y="49"/>
      <point x="603" y="210" type="curve" smooth="yes"/>
      <point x="623" y="290" type="line" smooth="yes"/>
      <point x="657" y="425"/>
      <point x="599" y="510"/>
      <point x="449" y="510" type="curve" smooth="yes"/>
      <point x="328" y="510"/>
      <point x="268.017701775" y="470.040231308"/>
      <point x="246" y="420" type="curve"/>
      <point x="210" y="260" type="line"/>
      <point x="234.969024562" y="359.876098248"/>
      <point x="266.085561497" y="410.0"/>
      <point x="394" y="410" type="curve" smooth="yes"/>
      <point x="512.761061947" y="410.0"/>
      <point x="546.145794723" y="380.583178892"/>
      <point x="516" y="260" type="curve" smooth="yes"/>
    </contour>
  </outline>
</glyph>
<glyph name="c" format="1">
  <advance width="600"/>
  <unicode hex="0063"/>
  <outline>
    <contour>
      <point x="121" y="310" type="curve" smooth="yes"/>
      <point x="94" y="190" type="line" smooth="yes"/>
      <point x="66" y="64"/>
      <point x="127" y="-10"/>
      <point x="305" y="-10" type="curve" smooth="yes"/>
      <point x="495" y="-10"/>
      <point x="565" y="40"/>
      <point x="585" y="130" type="curve" smooth="yes"/>
      <point x="595" y="175" type="line"/>
      <point x="495" y="175" type="line"/>
      <point x="485" y="140" type="line" smooth="yes"/>
      <point x="475" y="105"/>
      <point x="455" y="90"/>
      <point x="325" y="90" type="curve" smooth="yes"/>
      <point x="195" y="90"/>
      <point x="176" y="110"/>
      <point x="194" y="190" type="curve" smooth="yes"/>
      <point x="221" y="309" type="line" smooth="yes"/>
      <point x="239" y="389"/>
      <point x="265" y="410"/>
      <point x="395" y="410" type="curve" smooth="yes"/>
      <point x="525" y="410"/>
      <point x="550" y="400"/>
      <point x="540" y="360" type="curve" smooth="yes"/>
      <point x="530" y="325" type="line"/>
      <point x="630" y="325" type="line"/>
      <point x="640" y="370" type="line" smooth="yes"/>
      <point x="660" y="460"/>
      <point x="605" y="510"/>
      <point x="415" y="510" type="curve" smooth="yes"/>
      <point x="229" y="510"/>
      <point x="152" y="446"/>
    </contour>
    <contour>
      <point x="215.0" y="650.0" type="move" name="top"/>
    </contour>
  </outline>
</glyph>
<glyph name="d" format="1">
  <advance width="600"/>
  <unicode hex="0064"/>
  <outline>
    <contour>
      <point x="543.107773215" y="-10.0"/>
      <point x="-581.539396586" y="-10.0"/>
      <point x="270" y="-10" type="curve" smooth="yes"/>
    </contour>
    <contour>
      <point x="550" y="0" type="line"/>
      <point x="665" y="500" type="line"/>
      <point x="575" y="500" type="line"/>
      <point x="549" y="420" type="line"/>
      <point x="520" y="275" type="line"/>
      <point x="515" y="240" type="line"/>
      <point x="470" y="80" type="line"/>
      <point x="460" y="0" type="line"/>
    </contour>
    <contour>
      <point x="478" y="114" type="line"/>
      <point x="550" y="0" type="line"/>
      <point x="710" y="700" type="line"/>
      <point x="610" y="700" type="line"/>
    </contour>
    <contour>
      <point x="525" y="290" type="line"/>
      <point x="547" y="420" type="line"/>
      <point x="547.0" y="470.0"/>
      <point x="505.25" y="510.0"/>
      <point x="380" y="510" type="curve" smooth="yes"/>
      <point x="222" y="510"/>
      <point x="150" y="440"/>
      <point x="115" y="290" type="curve" smooth="yes"/>
      <point x="95" y="210" type="line" smooth="yes"/>
      <point x="61" y="75"/>
      <point x="128" y="-10"/>
      <point x="270" y="-10" type="curve" smooth="yes"/>
      <point x="390" y="-10"/>
      <point x="450" y="30"/>
      <point x="470" y="80" type="curve"/>
      <point x="520" y="145" type="line"/>
    </contour>
    <contour>
      <point x="505" y="240" type="line" smooth="yes"/>
      <point x="485" y="140"/>
      <point x="450" y="90"/>
      <point x="320" y="90" type="curve" smooth="yes"/>
      <point x="210" y="90"/>
      <point x="170" y="120"/>
      <point x="200" y="240" type="curve" smooth="yes"/>
      <point x="205" y="260" type="line" smooth="yes"/>
      <point x="235" y="380"/>
      <point x="280" y="410"/>
      <point x="390" y="410" type="curve" smooth="yes"/>
      <point x="505" y="410"/>
      <point x="530" y="370"/>
      <point x="515" y="290" type="curve" smooth="yes"/>
    </contour>
    <contour>
      <point x="650.0" y="650.0" type="move" name="top"/>
    </contour>
  </outline>
</glyph>
<glyph name="e" format="1">
  <advance width="600"/>
  <unicode hex="0065"/>
  <outline>
    <contour>
      <point x="622" y="310" type="line"/>
      <point x="652" y="429"/>
      <point x="602" y="510"/>
      <point x="422" y="510" type="curve" smooth="yes"/>
      <point x="238" y="510"/>
      <point x="157" y="454"/>
      <point x="121" y="311" type="curve" smooth="yes"/>
      <point x="107" y="250" type="line"/>
      <point x="207" y="250" type="line"/>
      <point x="221" y="311" type="line" smooth="yes"/>
      <point x="241" y="391"/>
      <point x="267" y="410"/>
      <point x="397" y="410" type="curve" smooth="yes"/>
      <point x="527" y="410"/>
      <point x="542" y="390"/>
      <point x="522" y="310" type="curve"/>
      <point x="495" y="200" type="line"/>
      <point x="595" y="200" type="line"/>
    </contour>
    <contour>
      <point x="577" y="130" type="curve" smooth="yes"/>
      <point x="582" y="150" type="line"/>
      <point x="482" y="150" type="line"/>
      <point x="477" y="130" type="line" smooth="yes"/>
      <point x="470" y="100"/>
      <point x="447" y="90"/>
      <point x="317" y="90" type="curve" smooth="yes"/>
      <point x="187" y="90"/>
      <point x="173" y="110"/>
      <point x="193" y="190" type="curve" smooth="yes"/>
      <point x="207" y="250" type="line"/>
      <point x="107" y="250" type="line"/>
      <point x="93" y="190" type="line" smooth="yes"/>
      <point x="61" y="60"/>
      <point x="112" y="-10"/>
      <point x="292" y="-10" type="curve" smooth="yes"/>
      <point x="490" y="-10"/>
      <point x="551" y="25"/>
    </contour>
    <contour>
      <point x="145" y="200" type="line"/>
      <point x="535" y="200" type="line"/>
      <point x="559" y="300" type="line"/>
      <point x="169" y="300" type="line"/>
    </contour>
    <contour>
      <point x="300.0" y="500.0" type="move" name="top"/>
    </contour>
  </outline>
</glyph>
<glyph name="f" format="1">
  <advance width="400"/>
  <unicode hex="0066"/>
  <outline>
    <contour>
      <point x="75" y="200" type="line"/>
      <point x="435" y="200" type="line"/>
      <point x="435" y="300" type="line"/>
      <point x="75" y="300" type="line"/>
    </contour>
    <contour>
      <point x="549" y="700" type="line"/>
      <point x="364" y="700" type="line"/>
      <point x="270" y="700"/>
      <point x="198" y="640"/>
      <point x="177" y="550" type="curve" smooth="yes"/>
      <point x="130" y="350" type="line"/>
      <point x="128" y="275" type="line"/>
      <point x="116" y="225" type="line"/>
      <point x="87" y="150" type="line"/>
      <point x="50" y="0" type="line"/>
      <point x="150" y="0" type="line"/>
      <point x="277" y="550" type="line" smooth="yes"/>
      <point x="287" y="590"/>
      <point x="309" y="600"/>
      <point x="339" y="600" type="curve"/>
      <point x="549" y="600" type="line"/>
    </contour>
  </outline>
</glyph>
<glyph name="g" format="1">
  <advance width="600"/>
  <unicode hex="0067"/>
  <outline>
    <contour>
      <point x="273" y="-110" type="curve" smooth="yes"/>
      <point x="143" y="-110"/>
      <point x="126" y="-100"/>
      <point x="136" y="-60" type="curve" smooth="yes"/>
      <point x="146" y="-20"/>
      <point x="181" y="0"/>
      <point x="271" y="0" type="curve"/>
      <point x="391" y="0"/>
      <point x="450" y="35"/>
      <point x="471" y="80" type="curve"/>
      <point x="443" y="-30" type="line" smooth="yes"/>
      <point x="428" y="-90"/>
      <point x="403" y="-110"/>
    </contour>
    <contour>
      <point x="105" y="220" type="line" smooth="yes"/>
      <point x="83" y="135"/>
      <point x="94" y="75"/>
      <point x="146" y="40" type="curve"/>
      <point x="88" y="30"/>
      <point x="51" y="0"/>
      <point x="36" y="-60" type="curve" smooth="yes"/>
      <point x="12.9320217892" y="-150.266001695"/>
      <point x="77" y="-210"/>
      <point x="258" y="-210" type="curve" smooth="yes"/>
      <point x="444" y="-210"/>
      <point x="512" y="-156"/>
      <point x="543" y="-30" type="curve" smooth="yes"/>
      <point x="675" y="500" type="line"/>
      <point x="585" y="500" type="line"/>
      <point x="555" y="420" type="line"/>
      <point x="546" y="471"/>
      <point x="502" y="510"/>
      <point x="398" y="510" type="curve" smooth="yes"/>
      <point x="254" y="510"/>
      <point x="161" y="440"/>
      <point x="123" y="290" type="curve" smooth="yes"/>
    </contour>
    <contour>
      <point x="215" y="260" type="line" smooth="yes"/>
      <point x="245" y="380"/>
      <point x="293" y="410"/>
      <point x="403" y="410" type="curve" smooth="yes"/>
      <point x="533" y="410"/>
      <point x="540" y="360"/>
      <point x="515" y="260" type="curve"/>
      <point x="510" y="240" type="line"/>
      <point x="487" y="147"/>
      <point x="456" y="100"/>
      <point x="326" y="100" type="curve" smooth="yes"/>
      <point x="216" y="100"/>
      <point x="182" y="128"/>
      <point x="210" y="240" type="curve" smooth="yes"/>
    </contour>
  </outline>
</glyph>
<glyph name="h" format="1">
  <advance width="600"/>
  <unicode hex="0068"/>
  <outline>
    <contour>
      <point x="242" y="420" type="curve"/>
      <point x="210" y="260" type="line"/>
      <point x="235" y="360"/>
      <point x="265" y="410"/>
      <point x="420" y="410" type="curve" smooth="yes"/>
      <point x="512" y="410"/>
      <point x="534" y="381"/>
      <point x="507" y="260" type="curve" smooth="yes"/>
      <point x="450" y="0" type="line"/>
      <point x="550" y="0" type="line"/>
      <point x="615" y="290" type="line" smooth="yes"/>
      <point x="646" y="426"/>
      <point x="582" y="510"/>
      <point x="450" y="510" type="curve" smooth="yes"/>
      <point x="327" y="510"/>
      <point x="265" y="470"/>
    </contour>
    <contour>
      <point x="50" y="0" type="line"/>
      <point x="150" y="0" type="line"/>
      <point x="310" y="700" type="line"/>
      <point x="210" y="700" type="line"/>
    </contour>
    <contour>
      <point x="250" y="650" type="move" name="top"/>
    </contour>
  </outline>
</glyph>
<glyph name="i" format="1">
  <advance width="200"/>
  <unicode hex="0069"/>
  <outline>
    <contour>
      <point x="50" y="0" type="line"/>
      <point x="150" y="0" type="line"/>
      <point x="265" y="500" type="line"/>
      <point x="165" y="500" type="line"/>
    </contour>
    <contour>
      <point x="180" y="590" type="line"/>
      <point x="290" y="590" type="line"/>
      <point x="315" y="700" type="line"/>
      <point x="205" y="700" type="line"/>
    </contour>
    <contour>
      <point x="250.0" y="650.0" type="move" name="top"/>
    </contour>
  </outline>
</glyph>
<glyph name="j" format="1">
  <advance width="200"/>
  <unicode hex="006A"/>
  <outline>
    <contour>
      <point x="193" y="590" type="line"/>
      <point x="303" y="590" type="line"/>
      <point x="328" y="700" type="line"/>
      <point x="218" y="700" type="line"/>
    </contour>
    <component base="dotlessj"/>
  </outline>
</glyph>
<glyph name="k" format="1">
  <advance width="600"/>
  <unicode hex="006B"/>
  <outline>
    <contour>
      <point x="178" y="200" type="line"/>
      <point x="298" y="200" type="line"/>
      <point x="322" y="300" type="line"/>
      <point x="202" y="300" type="line"/>
    </contour>
    <contour>
      <point x="395" y="227" type="line"/>
      <point x="541.0" y="227.0"/>
      <point x="590.838297685" y="268.109421957"/>
      <point x="637" y="400" type="curve" smooth="yes"/>
      <point x="672" y="500" type="line"/>
      <point x="572" y="500" type="line"/>
      <point x="528" y="374" type="line" smooth="yes"/>
      <point x="505" y="310"/>
      <point x="492" y="300"/>
      <point x="412" y="300" type="curve"/>
      <point x="297" y="300" type="line"/>
      <point x="273" y="200" type="line"/>
    </contour>
    <contour>
      <point x="405" y="260" type="curve"/>
      <point x="297" y="300" type="line"/>
      <point x="273" y="200" type="line"/>
      <point x="388" y="200" type="line"/>
      <point x="468" y="200"/>
      <point x="475" y="190"/>
      <point x="463" y="100" type="curve" smooth="yes"/>
      <point x="448" y="0" type="line"/>
      <point x="548" y="0" type="line"/>
      <point x="563" y="100" type="line" smooth="yes"/>
      <point x="580.014403799" y="213.42935866"/>
      <point x="535.0" y="260.0"/>
    </contour>
    <contour>
      <point x="50" y="0" type="line"/>
      <point x="150" y="0" type="line"/>
      <point x="310" y="700" type="line"/>
      <point x="210" y="700" type="line"/>
    </contour>
    <contour>
      <point x="250.0" y="650.0" type="move" name="top"/>
    </contour>
  </outline>
</glyph>
<glyph name="m" format="1">
  <advance width="595"/>
  <unicode hex="006D"/>
  <outline>
    <contour>
      <point x="50" y="0" type="line"/>
      <point x="150" y="0" type="line"/>
      <point x="254" y="447" type="line"/>
      <point x="251" y="455" type="line"/>
      <point x="257" y="500" type="line"/>
      <point x="167" y="500" type="line"/>
    </contour>
    <contour>
      <point x="251" y="455" type="curve"/>
      <point x="233" y="360" type="line"/>
      <point x="242.990732741" y="399.962930966"/>
      <point x="265.476190476" y="410.0"/>
      <point x="295" y="410" type="curve" smooth="yes"/>
      <point x="325" y="410"/>
      <point x="342" y="400"/>
      <point x="332" y="360" type="curve" smooth="yes"/>
      <point x="250" y="0" type="line"/>
      <point x="350" y="0" type="line"/>
      <point x="440" y="390" type="line"/>
      <point x="440" y="450" type="line"/>
      <point x="428" y="485"/>
      <point x="410" y="510"/>
      <point x="360" y="510" type="curve" smooth="yes"/>
      <point x="310" y="510"/>
      <point x="270" y="490"/>
    </contour>
    <contour>
      <point x="435" y="450" type="curve"/>
      <point x="433" y="360" type="line"/>
      <point x="442.990732741" y="399.962930966"/>
      <point x="465.476190476" y="410.0"/>
      <point x="495" y="410" type="curve" smooth="yes"/>
      <point x="525" y="410"/>
      <point x="542" y="400"/>
      <point x="532" y="360" type="curve" smooth="yes"/>
      <point x="450" y="0" type="line"/>
      <point x="550" y="0" type="line"/>
      <point x="634" y="362" type="line" smooth="yes"/>
      <point x="656" y="457"/>
      <point x="617" y="510"/>
      <point x="550" y="510" type="curve" smooth="yes"/>
      <point x="500" y="510"/>
      <point x="465" y="490"/>
    </contour>
  </outline>
</glyph>
<glyph name="n" format="1">
  <advance width="600"/>
  <unicode hex="006E"/>
  <outline>
    <contour>
      <point x="50" y="0" type="line"/>
      <point x="150" y="0" type="line"/>
      <point x="241" y="395" type="line"/>
      <point x="242" y="420" type="line"/>
      <point x="255" y="500" type="line"/>
      <point x="165" y="500" type="line"/>
    </contour>
    <contour>
      <point x="242" y="420" type="curve"/>
      <point x="210" y="260" type="line"/>
      <point x="235" y="360"/>
      <point x="265" y="410"/>
      <point x="420" y="410" type="curve" smooth="yes"/>
      <point x="512" y="410"/>
      <point x="534" y="381"/>
      <point x="507" y="260" type="curve" smooth="yes"/>
      <point x="450" y="0" type="line"/>
      <point x="550" y="0" type="line"/>
      <point x="615" y="290" type="line" smooth="yes"/>
      <point x="646" y="426"/>
      <point x="582" y="510"/>
      <point x="450" y="510" type="curve" smooth="yes"/>
      <point x="327" y="510"/>
      <point x="265" y="470"/>
    </contour>
    <contour>
      <point x="300.0" y="500.0" type="move" name="top"/>
    </contour>
    <contour>
      <point x="421.0" y="500.0" type="move" name="top"/>
    </contour>
  </outline>
</glyph>
<glyph name="o" format="1">
  <advance width="600"/>
  <unicode hex="006F"/>
  <outline>
    <contour>
      <point x="397" y="410" type="curve"/>
      <point x="532" y="410"/>
      <point x="542" y="370"/>
      <point x="522" y="290" type="curve" smooth="yes"/>
      <point x="512" y="250" type="line"/>
      <point x="612" y="250" type="line"/>
      <point x="622" y="290" type="line" smooth="yes"/>
      <point x="654" y="420"/>
      <point x="607" y="510"/>
      <point x="422" y="510" type="curve"/>
      <point x="217" y="510"/>
      <point x="143" y="430"/>
      <point x="111" y="290" type="curve" smooth="yes"/>
      <point x="102" y="250" type="line"/>
      <point x="202" y="250" type="line"/>
      <point x="212" y="290" type="line" smooth="yes"/>
      <point x="232" y="370"/>
      <point x="262" y="410"/>
    </contour>
    <contour>
      <point x="317" y="90" type="curve"/>
      <point x="182" y="90"/>
      <point x="172" y="130"/>
      <point x="192" y="210" type="curve" smooth="yes"/>
      <point x="202" y="250" type="line"/>
      <point x="102" y="250" type="line"/>
      <point x="92" y="210" type="line" smooth="yes"/>
      <point x="60" y="80"/>
      <point x="107" y="-10"/>
      <point x="292" y="-10" type="curve"/>
      <point x="497" y="-10"/>
      <point x="572" y="70"/>
      <point x="603" y="210" type="curve" smooth="yes"/>
      <point x="612" y="250" type="line"/>
      <point x="512" y="250" type="line"/>
      <point x="502" y="210" type="line" smooth="yes"/>
      <point x="482" y="130"/>
      <point x="452" y="90"/>
    </contour>
    <contour>
      <point x="300.0" y="500.0" type="move" name="top"/>
    </contour>
    <contour>
      <point x="419" y="500" type="move" name="top"/>
    </contour>
  </outline>
</glyph>
<glyph name="p" format="1">
  <advance width="600"/>
  <unicode hex="0070"/>
  <outline>
    <contour>
      <point x="4" y="-200" type="line"/>
      <point x="107" y="-200" type="line"/>
      <point x="171" y="80" type="line"/>
      <point x="247" y="421" type="line" smooth="yes"/>
      <point x="253" y="500" type="line"/>
      <point x="164" y="500" type="line"/>
    </contour>
    <contour>
      <point x="511" y="240" type="line" smooth="yes"/>
      <point x="481" y="120"/>
      <point x="433" y="90"/>
      <point x="323" y="90" type="curve" smooth="yes"/>
      <point x="187" y="90"/>
      <point x="183" y="140"/>
      <point x="206" y="240" type="curve"/>
      <point x="171" y="80" type="line"/>
      <point x="179" y="28"/>
      <point x="213" y="-10"/>
      <point x="328" y="-10" type="curve" smooth="yes"/>
      <point x="478" y="-10"/>
      <point x="563" y="49"/>
      <point x="603" y="210" type="curve" smooth="yes"/>
      <point x="623" y="290" type="line" smooth="yes"/>
      <point x="657" y="425"/>
      <point x="599" y="510"/>
      <point x="449" y="510" type="curve" smooth="yes"/>
      <point x="328" y="510"/>
      <point x="268" y="470"/>
      <point x="246" y="420" type="curve"/>
      <point x="210" y="260" type="line"/>
      <point x="235" y="360"/>
      <point x="266" y="410"/>
      <point x="394" y="410" type="curve" smooth="yes"/>
      <point x="513" y="410"/>
      <point x="546" y="381"/>
      <point x="516" y="260" type="curve" smooth="yes"/>
    </contour>
  </outline>
</glyph>
<glyph name="r" format="1">
  <advance width="400"/>
  <unicode hex="0072"/>
  <outline>
    <contour>
      <point x="50" y="0" type="line"/>
      <point x="150" y="0" type="line"/>
      <point x="241" y="395" type="line"/>
      <point x="242" y="420" type="line"/>
      <point x="255" y="500" type="line"/>
      <point x="165" y="500" type="line"/>
    </contour>
    <contour>
      <point x="242" y="420" type="curve"/>
      <point x="210" y="260" type="line"/>
      <point x="233.434653967" y="353.738615867"/>
      <point x="265" y="400"/>
      <point x="420" y="400" type="curve" smooth="yes"/>
      <point x="496" y="400" type="line"/>
      <point x="496" y="500" type="line" smooth="yes"/>
      <point x="450" y="500" type="line" smooth="yes"/>
      <point x="327" y="500"/>
      <point x="262.913278717" y="465.463649384"/>
    </contour>
    <contour>
      <point x="300.0" y="500.0" type="move" name="top"/>
    </contour>
    <contour>
      <point x="421.0" y="500.0" type="move" name="top"/>
    </contour>
  </outline>
</glyph>
<glyph name="s" format="1">
  <advance width="600"/>
  <unicode hex="0073"/>
  <outline>
    <contour>
      <point x="589" y="124" type="curve" smooth="yes"/>
      <point x="616" y="234"/>
      <point x="567" y="280"/>
      <point x="372" y="300" type="curve" smooth="yes"/>
      <point x="275" y="310"/>
      <point x="217" y="320"/>
      <point x="227" y="360" type="curve" smooth="yes"/>
      <point x="237" y="400"/>
      <point x="270" y="410"/>
      <point x="400" y="410" type="curve" smooth="yes"/>
      <point x="526.204379562" y="410.0"/>
      <point x="543" y="400"/>
      <point x="533" y="360" type="curve" smooth="yes"/>
      <point x="528" y="340" type="line"/>
      <point x="628" y="340" type="line"/>
      <point x="636" y="370" type="line" smooth="yes"/>
      <point x="659" y="457"/>
      <point x="611" y="510"/>
      <point x="404" y="510" type="curve" smooth="yes"/>
      <point x="235" y="510"/>
      <point x="153" y="464"/>
      <point x="129" y="368" type="curve" smooth="yes"/>
      <point x="103" y="266"/>
      <point x="153" y="220"/>
      <point x="348" y="200" type="curve" smooth="yes"/>
      <point x="445" y="190"/>
      <point x="503" y="180"/>
      <point x="493" y="140" type="curve" smooth="yes"/>
      <point x="483" y="100"/>
      <point x="450" y="90"/>
      <point x="320" y="90" type="curve" smooth="yes"/>
      <point x="190" y="90"/>
      <point x="173" y="100"/>
      <point x="183" y="140" type="curve" smooth="yes"/>
      <point x="188" y="160" type="line"/>
      <point x="88" y="160" type="line"/>
      <point x="80" y="130" type="line" smooth="yes"/>
      <point x="58" y="47"/>
      <point x="105" y="-10"/>
      <point x="312" y="-10" type="curve" smooth="yes"/>
      <point x="501" y="-10"/>
      <point x="569" y="45"/>
    </contour>
  </outline>
</glyph>
<glyph name="t" format="1">
  <advance width="400"/>
  <unicode hex="0074"/>
  <outline>
    <contour>
      <point x="361" y="100" type="line"/>
      <point x="220" y="100" type="line"/>
      <point x="190" y="100"/>
      <point x="175" y="110"/>
      <point x="185" y="150" type="curve"/>
      <point x="240" y="400" type="line"/>
      <point x="451" y="400" type="line"/>
      <point x="451" y="500" type="line"/>
      <point x="265" y="500" type="line"/>
      <point x="285" y="600" type="line"/>
      <point x="205" y="600" type="line"/>
      <point x="160" y="490" type="line"/>
      <point x="85" y="150" type="line"/>
      <point x="60" y="50"/>
      <point x="100" y="0"/>
      <point x="200" y="0" type="curve"/>
      <point x="361" y="0" type="line"/>
    </contour>
    <contour>
      <point x="250" y="650" type="move" name="top"/>
    </contour>
  </outline>
</glyph>
<glyph name="u" format="1">
  <advance width="600"/>
  <unicode hex="0075"/>
  <outline>
    <contour>
      <point x="676" y="500" type="line"/>
      <point x="576" y="500" type="line"/>
      <point x="481" y="80" type="line"/>
      <point x="471" y="0" type="line"/>
      <point x="561" y="0" type="line"/>
    </contour>
    <contour>
      <point x="481" y="80" type="curve"/>
      <point x="518" y="240" type="line"/>
      <point x="493.007886379" y="140.031545514"/>
      <point x="460.925531915" y="90.0"/>
      <point x="333" y="90" type="curve" smooth="yes"/>
      <point x="217.107142857" y="90.0"/>
      <point x="186.647579192" y="119.153616228"/>
      <point x="215" y="240" type="curve" smooth="yes"/>
      <point x="276" y="500" type="line"/>
      <point x="176" y="500" type="line"/>
      <point x="111" y="210" type="line" smooth="yes"/>
      <point x="80" y="73"/>
      <point x="149" y="-10"/>
      <point x="278" y="-10" type="curve" smooth="yes"/>
      <point x="398" y="-10"/>
      <point x="458" y="30"/>
    </contour>
    <contour>
      <point x="300.0" y="500.0" type="move" name="top"/>
    </contour>
  </outline>
</glyph>
<glyph name="v" format="1">
  <advance width="600"/>
  <unicode hex="0076"/>
  <outline>
    <contour>
      <point x="251" y="0" type="curve"/>
      <point x="336" y="53" type="line"/>
      <point x="210.000089043" y="145.615319165"/>
      <point x="200.485083903" y="241.940335612"/>
      <point x="240" y="400" type="curve" smooth="yes"/>
      <point x="265" y="500" type="line"/>
      <point x="165" y="500" type="line"/>
      <point x="140" y="400" type="line" smooth="yes"/>
      <point x="102.306569958" y="249.226279831"/>
      <point x="107.227090114" y="106.498451768"/>
    </contour>
    <contour>
      <point x="351" y="0" type="line"/>
      <point x="531.23034276" y="97.4218068975"/>
      <point x="598.08132536" y="232.325301439"/>
      <point x="640" y="400" type="curve" smooth="yes"/>
      <point x="665" y="500" type="line"/>
      <point x="565" y="500" type="line"/>
      <point x="540" y="400" type="line" smooth="yes"/>
      <point x="502.854920553" y="251.419682212"/>
      <point x="435.414181181" y="152.342309548"/>
      <point x="264" y="53" type="curve"/>
      <point x="251" y="0" type="line"/>
    </contour>
  </outline>
</glyph>
<glyph name="x" format="1">
  <advance width="600"/>
  <unicode hex="0078"/>
  <outline>
    <contour>
      <point x="331" y="230" type="curve"/>
      <point x="433" y="270" type="line"/>
      <point x="284" y="331"/>
      <point x="236" y="380"/>
      <point x="253" y="450" type="curve" smooth="yes"/>
      <point x="265" y="500" type="line"/>
      <point x="165" y="500" type="line"/>
      <point x="153" y="450" type="line" smooth="yes"/>
      <point x="137" y="383"/>
      <point x="169.622510807" y="280.804024376"/>
    </contour>
    <contour>
      <point x="376" y="220" type="line"/>
      <point x="552.049343575" y="268.192278409"/>
      <point x="631.679237701" y="361.163490419"/>
      <point x="653" y="450" type="curve" smooth="yes"/>
      <point x="665" y="500" type="line"/>
      <point x="565" y="500" type="line"/>
      <point x="553" y="450" type="line" smooth="yes"/>
      <point x="536.152601529" y="379.80250637"/>
      <point x="465.185049754" y="329.408876816"/>
      <point x="293" y="270" type="curve"/>
      <point x="366" y="240" type="line"/>
    </contour>
    <contour>
      <point x="343" y="290" type="line"/>
      <point x="164.917741847" y="240.806006035"/>
      <point x="81.3211711124" y="138.838212968"/>
      <point x="60" y="50" type="curve" smooth="yes"/>
      <point x="48" y="0" type="line"/>
      <point x="148" y="0" type="line"/>
      <point x="160" y="50" type="line" smooth="yes"/>
      <point x="176.859774076" y="120.249058651"/>
      <point x="252.168138282" y="180.400504554"/>
      <point x="426" y="240" type="curve"/>
    </contour>
    <contour>
      <point x="388" y="280" type="curve"/>
      <point x="286" y="240" type="line"/>
      <point x="432" y="179"/>
      <point x="476.879784653" y="120.332436054"/>
      <point x="460" y="50" type="curve" smooth="yes"/>
      <point x="448" y="0" type="line"/>
      <point x="548" y="0" type="line"/>
      <point x="560" y="50" type="line" smooth="yes"/>
      <point x="576" y="117"/>
      <point x="547.385129508" y="229.195989969"/>
    </contour>
  </outline>
</glyph>
<glyph name="y" format="1">
  <advance width="600"/>
  <unicode hex="0079"/>
  <outline>
    <contour>
      <point x="194" y="-200" type="line"/>
      <point x="294" y="-200" type="line"/>
      <point x="355" y="64" type="line"/>
      <point x="255" y="64" type="line"/>
    </contour>
    <contour>
      <point x="251" y="0" type="curve"/>
      <point x="336" y="53" type="line"/>
      <point x="210.000089043" y="145.615319165"/>
      <point x="200.485083903" y="241.940335612"/>
      <point x="240" y="400" type="curve" smooth="yes"/>
      <point x="265" y="500" type="line"/>
      <point x="165" y="500" type="line"/>
      <point x="140" y="400" type="line" smooth="yes"/>
      <point x="102.306569958" y="249.226279831"/>
      <point x="107.227090114" y="106.498451768"/>
    </contour>
    <contour>
      <point x="341" y="0" type="line"/>
      <point x="526" y="92"/>
      <point x="597.994616928" y="231.978467712"/>
      <point x="640" y="400" type="curve" smooth="yes"/>
      <point x="665" y="500" type="line"/>
      <point x="565" y="500" type="line"/>
      <point x="540" y="400" type="line" smooth="yes"/>
      <point x="502.839031063" y="251.35612425"/>
      <point x="435.414181181" y="152.342309548"/>
      <point x="264" y="53" type="curve"/>
      <point x="251" y="0" type="line"/>
    </contour>
    <contour>
      <point x="300.0" y="500.0" type="move" name="top"/>
    </contour>
    <contour>
      <point x="394.0" y="450.0" type="move" name="top"/>
    </contour>
  </outline>
</glyph>
<glyph name="z" format="1">
  <advance width="600"/>
  <unicode hex="007A"/>
  <outline>
    <contour>
      <point x="141" y="400" type="line"/>
      <point x="371" y="400" type="line"/>
      <point x="604" y="410" type="line"/>
      <point x="649" y="430" type="line"/>
      <point x="666" y="500" type="line"/>
      <point x="166" y="500" type="line"/>
    </contour>
    <contour>
      <point x="48" y="0" type="line"/>
      <point x="548" y="0" type="line"/>
      <point x="573" y="100" type="line"/>
      <point x="343" y="100" type="line"/>
      <point x="110" y="90" type="line"/>
      <point x="65" y="70" type="line"/>
    </contour>
    <contour>
      <point x="133" y="0" type="line"/>
      <point x="649" y="430" type="line"/>
      <point x="569" y="490" type="line"/>
      <point x="65" y="70" type="line"/>
    </contour>
    <contour>
      <point x="300.0" y="500.0" type="move" name="top"/>
    </contour>
  </outline>
</glyph>
<glyph name="dotlessj" format="1">
  <advance width="200"/>
  <outline>
    <contour>
      <point x="-47" y="-200" type="line"/>
      <point x="63" y="-200"/>
      <point x="112" y="-164"/>
      <point x="140" y="-50" type="curve" smooth="yes"/>
      <point x="277" y="500" type="line"/>
      <point x="177" y="500" type="line"/>
      <point x="40" y="-50" type="line" smooth="yes"/>
      <point x="29.7560236705" y="-91.1254524178"/>
      <point x="2.11290322581" y="-100.0"/>
      <point x="-47" y="-100" type="curve"/>
    </contour>
  </outline>
</glyph>
<glyph name="heavyverticalandhorizontal" format="1">
  <advance width="1000"/>
  <outline>
    <contour>
      <point x="40" y="200" type="line"/>
      <point x="940" y="200" type="line"/>
      <point x="960" y="300" type="line"/>
      <point x="60" y="300" type="line"/>
    </contour>
    <contour>
      <point x="450" y="-200" type="line"/>
      <point x="655" y="700" type="line"/>
      <point x="550" y="700" type="line"/>
      <point x="345" y="-200" type="line"/>
    </contour>
  </outline>
</glyph>
